<mxfile host="Electron" modified="2024-03-08T08:00:06.928Z" agent="Mozilla/5.0 (Macintosh; Intel Mac OS X 10_15_7) AppleWebKit/537.36 (KHTML, like Gecko) draw.io/23.1.5 Chrome/120.0.6099.109 Electron/28.1.0 Safari/537.36" etag="tfaDwIXak9_n1yQQTfwX" version="23.1.5" type="device" pages="3">
  <diagram name="1" id="raGk_D8FTLXwgUmbc4jt">
    <mxGraphModel dx="794" dy="1142" grid="1" gridSize="10" guides="1" tooltips="1" connect="1" arrows="1" fold="1" page="1" pageScale="1" pageWidth="380" pageHeight="360" math="0" shadow="0">
      <root>
        <mxCell id="0" />
        <mxCell id="1" parent="0" />
        <mxCell id="ARKdLqk96OYoiBVtiu2A-5" style="edgeStyle=orthogonalEdgeStyle;rounded=0;orthogonalLoop=1;jettySize=auto;html=1;exitX=1;exitY=0.5;exitDx=0;exitDy=0;entryX=0;entryY=0.5;entryDx=0;entryDy=0;strokeWidth=2;fillColor=#f5f5f5;strokeColor=#666666;" parent="1" source="zCmTgFsGxIaxcytd8qIg-1" target="zCmTgFsGxIaxcytd8qIg-2" edge="1">
          <mxGeometry relative="1" as="geometry" />
        </mxCell>
        <mxCell id="zCmTgFsGxIaxcytd8qIg-1" value="2" style="text;html=1;align=center;verticalAlign=middle;whiteSpace=wrap;rounded=0;fillColor=#f5f5f5;strokeColor=#666666;fontSize=14;fontColor=#333333;" parent="1" vertex="1">
          <mxGeometry x="40" y="60" width="40" height="40" as="geometry" />
        </mxCell>
        <mxCell id="ARKdLqk96OYoiBVtiu2A-6" style="edgeStyle=orthogonalEdgeStyle;rounded=0;orthogonalLoop=1;jettySize=auto;html=1;exitX=1;exitY=0.5;exitDx=0;exitDy=0;entryX=0;entryY=0.5;entryDx=0;entryDy=0;fillColor=#f5f5f5;strokeColor=#666666;strokeWidth=2;" parent="1" source="zCmTgFsGxIaxcytd8qIg-2" target="zCmTgFsGxIaxcytd8qIg-3" edge="1">
          <mxGeometry relative="1" as="geometry" />
        </mxCell>
        <mxCell id="zCmTgFsGxIaxcytd8qIg-2" value="4" style="text;html=1;align=center;verticalAlign=middle;whiteSpace=wrap;rounded=0;fillColor=#f5f5f5;strokeColor=#666666;fontSize=14;fontColor=#333333;" parent="1" vertex="1">
          <mxGeometry x="120" y="60" width="40" height="40" as="geometry" />
        </mxCell>
        <mxCell id="ARKdLqk96OYoiBVtiu2A-10" style="edgeStyle=orthogonalEdgeStyle;rounded=0;orthogonalLoop=1;jettySize=auto;html=1;exitX=0.5;exitY=0;exitDx=0;exitDy=0;entryX=0.5;entryY=0;entryDx=0;entryDy=0;fillColor=#dae8fc;strokeColor=#6c8ebf;" parent="1" source="zCmTgFsGxIaxcytd8qIg-1" target="ARKdLqk96OYoiBVtiu2A-9" edge="1">
          <mxGeometry relative="1" as="geometry">
            <Array as="points">
              <mxPoint x="60" y="40" />
              <mxPoint x="260" y="40" />
              <mxPoint x="260" y="240" />
              <mxPoint x="220" y="240" />
            </Array>
          </mxGeometry>
        </mxCell>
        <mxCell id="zCmTgFsGxIaxcytd8qIg-3" value="3" style="text;html=1;align=center;verticalAlign=middle;whiteSpace=wrap;rounded=0;fillColor=#f5f5f5;strokeColor=#666666;fontSize=14;fontColor=#333333;" parent="1" vertex="1">
          <mxGeometry x="200" y="60" width="40" height="40" as="geometry" />
        </mxCell>
        <mxCell id="AQBsLTuEEX6UYwU5JBV7-1" value="l1" style="text;html=1;align=center;verticalAlign=middle;whiteSpace=wrap;rounded=0;fontSize=10;" parent="1" vertex="1">
          <mxGeometry x="40" y="100" width="200" height="20" as="geometry" />
        </mxCell>
        <mxCell id="ARKdLqk96OYoiBVtiu2A-7" style="edgeStyle=orthogonalEdgeStyle;rounded=0;orthogonalLoop=1;jettySize=auto;html=1;exitX=1;exitY=0.5;exitDx=0;exitDy=0;entryX=0;entryY=0.5;entryDx=0;entryDy=0;strokeWidth=2;fillColor=#f5f5f5;strokeColor=#666666;" parent="1" source="ARKdLqk96OYoiBVtiu2A-1" target="ARKdLqk96OYoiBVtiu2A-2" edge="1">
          <mxGeometry relative="1" as="geometry" />
        </mxCell>
        <mxCell id="ARKdLqk96OYoiBVtiu2A-1" value="5" style="text;html=1;align=center;verticalAlign=middle;whiteSpace=wrap;rounded=0;fillColor=#f5f5f5;strokeColor=#666666;fontSize=14;fontColor=#333333;" parent="1" vertex="1">
          <mxGeometry x="40" y="160" width="40" height="40" as="geometry" />
        </mxCell>
        <mxCell id="ARKdLqk96OYoiBVtiu2A-8" style="edgeStyle=orthogonalEdgeStyle;rounded=0;orthogonalLoop=1;jettySize=auto;html=1;exitX=1;exitY=0.5;exitDx=0;exitDy=0;entryX=0;entryY=0.5;entryDx=0;entryDy=0;strokeWidth=2;fillColor=#f5f5f5;strokeColor=#666666;" parent="1" source="ARKdLqk96OYoiBVtiu2A-2" target="ARKdLqk96OYoiBVtiu2A-3" edge="1">
          <mxGeometry relative="1" as="geometry" />
        </mxCell>
        <mxCell id="ARKdLqk96OYoiBVtiu2A-2" value="6" style="text;html=1;align=center;verticalAlign=middle;whiteSpace=wrap;rounded=0;fillColor=#f5f5f5;strokeColor=#666666;fontSize=14;fontColor=#333333;" parent="1" vertex="1">
          <mxGeometry x="120" y="160" width="40" height="40" as="geometry" />
        </mxCell>
        <mxCell id="ARKdLqk96OYoiBVtiu2A-11" style="edgeStyle=orthogonalEdgeStyle;rounded=0;orthogonalLoop=1;jettySize=auto;html=1;exitX=0.5;exitY=0;exitDx=0;exitDy=0;entryX=0.5;entryY=0;entryDx=0;entryDy=0;fillColor=#dae8fc;strokeColor=#6c8ebf;" parent="1" source="ARKdLqk96OYoiBVtiu2A-1" target="ARKdLqk96OYoiBVtiu2A-9" edge="1">
          <mxGeometry relative="1" as="geometry">
            <Array as="points">
              <mxPoint x="60" y="140" />
              <mxPoint x="260" y="140" />
              <mxPoint x="260" y="240" />
              <mxPoint x="220" y="240" />
            </Array>
          </mxGeometry>
        </mxCell>
        <mxCell id="ARKdLqk96OYoiBVtiu2A-3" value="4" style="text;html=1;align=center;verticalAlign=middle;whiteSpace=wrap;rounded=0;fillColor=#f5f5f5;strokeColor=#666666;fontSize=14;fontColor=#333333;" parent="1" vertex="1">
          <mxGeometry x="200" y="160" width="40" height="40" as="geometry" />
        </mxCell>
        <mxCell id="ARKdLqk96OYoiBVtiu2A-4" value="l2" style="text;html=1;align=center;verticalAlign=middle;whiteSpace=wrap;rounded=0;fontSize=10;" parent="1" vertex="1">
          <mxGeometry x="40" y="200" width="200" height="20" as="geometry" />
        </mxCell>
        <mxCell id="ARKdLqk96OYoiBVtiu2A-9" value="7" style="text;html=1;align=center;verticalAlign=middle;whiteSpace=wrap;rounded=0;fillColor=#dae8fc;strokeColor=#6c8ebf;fontSize=14;" parent="1" vertex="1">
          <mxGeometry x="200" y="260" width="40" height="40" as="geometry" />
        </mxCell>
        <mxCell id="ARKdLqk96OYoiBVtiu2A-12" value="result" style="text;html=1;align=center;verticalAlign=middle;whiteSpace=wrap;rounded=0;fontSize=10;" parent="1" vertex="1">
          <mxGeometry x="200" y="300" width="40" height="20" as="geometry" />
        </mxCell>
        <mxCell id="ARKdLqk96OYoiBVtiu2A-13" value="0" style="text;html=1;align=center;verticalAlign=middle;whiteSpace=wrap;rounded=0;fillColor=#f5f5f5;strokeColor=#666666;fontSize=14;fontColor=#333333;" parent="1" vertex="1">
          <mxGeometry x="300" y="60" width="40" height="40" as="geometry" />
        </mxCell>
        <mxCell id="ARKdLqk96OYoiBVtiu2A-14" value="carry" style="text;html=1;align=center;verticalAlign=middle;whiteSpace=wrap;rounded=0;fontSize=10;" parent="1" vertex="1">
          <mxGeometry x="300" y="100" width="40" height="20" as="geometry" />
        </mxCell>
      </root>
    </mxGraphModel>
  </diagram>
  <diagram name="2" id="Rppwf0OM6JcqHUhS3g6F">
    <mxGraphModel dx="794" dy="1142" grid="1" gridSize="10" guides="1" tooltips="1" connect="1" arrows="1" fold="1" page="1" pageScale="1" pageWidth="380" pageHeight="380" math="0" shadow="0">
      <root>
        <mxCell id="VQfbc9Jr-YC_he8-z9He-0" />
        <mxCell id="VQfbc9Jr-YC_he8-z9He-1" parent="VQfbc9Jr-YC_he8-z9He-0" />
        <mxCell id="VQfbc9Jr-YC_he8-z9He-2" style="edgeStyle=orthogonalEdgeStyle;rounded=0;orthogonalLoop=1;jettySize=auto;html=1;exitX=1;exitY=0.5;exitDx=0;exitDy=0;entryX=0;entryY=0.5;entryDx=0;entryDy=0;strokeWidth=2;fillColor=#f5f5f5;strokeColor=#666666;" parent="VQfbc9Jr-YC_he8-z9He-1" source="VQfbc9Jr-YC_he8-z9He-3" target="VQfbc9Jr-YC_he8-z9He-5" edge="1">
          <mxGeometry relative="1" as="geometry" />
        </mxCell>
        <mxCell id="VQfbc9Jr-YC_he8-z9He-3" value="2" style="text;html=1;align=center;verticalAlign=middle;whiteSpace=wrap;rounded=0;fillColor=#f5f5f5;strokeColor=#666666;fontSize=14;fontColor=#333333;" parent="VQfbc9Jr-YC_he8-z9He-1" vertex="1">
          <mxGeometry x="40" y="60" width="40" height="40" as="geometry" />
        </mxCell>
        <mxCell id="VQfbc9Jr-YC_he8-z9He-4" style="edgeStyle=orthogonalEdgeStyle;rounded=0;orthogonalLoop=1;jettySize=auto;html=1;exitX=1;exitY=0.5;exitDx=0;exitDy=0;entryX=0;entryY=0.5;entryDx=0;entryDy=0;fillColor=#f5f5f5;strokeColor=#666666;strokeWidth=2;" parent="VQfbc9Jr-YC_he8-z9He-1" source="VQfbc9Jr-YC_he8-z9He-5" target="VQfbc9Jr-YC_he8-z9He-7" edge="1">
          <mxGeometry relative="1" as="geometry" />
        </mxCell>
        <mxCell id="VQfbc9Jr-YC_he8-z9He-5" value="4" style="text;html=1;align=center;verticalAlign=middle;whiteSpace=wrap;rounded=0;fillColor=#f5f5f5;strokeColor=#666666;fontSize=14;fontColor=#333333;" parent="VQfbc9Jr-YC_he8-z9He-1" vertex="1">
          <mxGeometry x="120" y="60" width="40" height="40" as="geometry" />
        </mxCell>
        <mxCell id="VQfbc9Jr-YC_he8-z9He-6" style="edgeStyle=orthogonalEdgeStyle;rounded=0;orthogonalLoop=1;jettySize=auto;html=1;exitX=0.5;exitY=0;exitDx=0;exitDy=0;entryX=0.5;entryY=0;entryDx=0;entryDy=0;fillColor=#dae8fc;strokeColor=#6c8ebf;" parent="VQfbc9Jr-YC_he8-z9He-1" source="VQfbc9Jr-YC_he8-z9He-5" target="SPLsom2ApgbeP6_uoEC7-0" edge="1">
          <mxGeometry relative="1" as="geometry">
            <Array as="points">
              <mxPoint x="140" y="40" />
              <mxPoint x="260" y="40" />
              <mxPoint x="260" y="230" />
              <mxPoint x="140" y="230" />
            </Array>
          </mxGeometry>
        </mxCell>
        <mxCell id="VQfbc9Jr-YC_he8-z9He-7" value="3" style="text;html=1;align=center;verticalAlign=middle;whiteSpace=wrap;rounded=0;fillColor=#f5f5f5;strokeColor=#666666;fontSize=14;fontColor=#333333;" parent="VQfbc9Jr-YC_he8-z9He-1" vertex="1">
          <mxGeometry x="200" y="60" width="40" height="40" as="geometry" />
        </mxCell>
        <mxCell id="VQfbc9Jr-YC_he8-z9He-8" value="l1" style="text;html=1;align=center;verticalAlign=middle;whiteSpace=wrap;rounded=0;fontSize=10;" parent="VQfbc9Jr-YC_he8-z9He-1" vertex="1">
          <mxGeometry x="40" y="100" width="200" height="20" as="geometry" />
        </mxCell>
        <mxCell id="VQfbc9Jr-YC_he8-z9He-9" style="edgeStyle=orthogonalEdgeStyle;rounded=0;orthogonalLoop=1;jettySize=auto;html=1;exitX=1;exitY=0.5;exitDx=0;exitDy=0;entryX=0;entryY=0.5;entryDx=0;entryDy=0;strokeWidth=2;fillColor=#f5f5f5;strokeColor=#666666;" parent="VQfbc9Jr-YC_he8-z9He-1" source="VQfbc9Jr-YC_he8-z9He-10" target="VQfbc9Jr-YC_he8-z9He-12" edge="1">
          <mxGeometry relative="1" as="geometry" />
        </mxCell>
        <mxCell id="VQfbc9Jr-YC_he8-z9He-10" value="5" style="text;html=1;align=center;verticalAlign=middle;whiteSpace=wrap;rounded=0;fillColor=#f5f5f5;strokeColor=#666666;fontSize=14;fontColor=#333333;" parent="VQfbc9Jr-YC_he8-z9He-1" vertex="1">
          <mxGeometry x="40" y="160" width="40" height="40" as="geometry" />
        </mxCell>
        <mxCell id="VQfbc9Jr-YC_he8-z9He-11" style="edgeStyle=orthogonalEdgeStyle;rounded=0;orthogonalLoop=1;jettySize=auto;html=1;exitX=1;exitY=0.5;exitDx=0;exitDy=0;entryX=0;entryY=0.5;entryDx=0;entryDy=0;strokeWidth=2;fillColor=#f5f5f5;strokeColor=#666666;" parent="VQfbc9Jr-YC_he8-z9He-1" source="VQfbc9Jr-YC_he8-z9He-12" target="VQfbc9Jr-YC_he8-z9He-14" edge="1">
          <mxGeometry relative="1" as="geometry" />
        </mxCell>
        <mxCell id="VQfbc9Jr-YC_he8-z9He-12" value="6" style="text;html=1;align=center;verticalAlign=middle;whiteSpace=wrap;rounded=0;fillColor=#f5f5f5;strokeColor=#666666;fontSize=14;fontColor=#333333;" parent="VQfbc9Jr-YC_he8-z9He-1" vertex="1">
          <mxGeometry x="120" y="160" width="40" height="40" as="geometry" />
        </mxCell>
        <mxCell id="VQfbc9Jr-YC_he8-z9He-13" style="edgeStyle=orthogonalEdgeStyle;rounded=0;orthogonalLoop=1;jettySize=auto;html=1;exitX=0.5;exitY=0;exitDx=0;exitDy=0;entryX=0.5;entryY=0;entryDx=0;entryDy=0;fillColor=#dae8fc;strokeColor=#6c8ebf;" parent="VQfbc9Jr-YC_he8-z9He-1" source="VQfbc9Jr-YC_he8-z9He-12" target="SPLsom2ApgbeP6_uoEC7-0" edge="1">
          <mxGeometry relative="1" as="geometry">
            <Array as="points">
              <mxPoint x="140" y="140" />
              <mxPoint x="260" y="140" />
              <mxPoint x="260" y="230" />
              <mxPoint x="140" y="230" />
            </Array>
          </mxGeometry>
        </mxCell>
        <mxCell id="VQfbc9Jr-YC_he8-z9He-14" value="4" style="text;html=1;align=center;verticalAlign=middle;whiteSpace=wrap;rounded=0;fillColor=#f5f5f5;strokeColor=#666666;fontSize=14;fontColor=#333333;" parent="VQfbc9Jr-YC_he8-z9He-1" vertex="1">
          <mxGeometry x="200" y="160" width="40" height="40" as="geometry" />
        </mxCell>
        <mxCell id="VQfbc9Jr-YC_he8-z9He-15" value="l2" style="text;html=1;align=center;verticalAlign=middle;whiteSpace=wrap;rounded=0;fontSize=10;" parent="VQfbc9Jr-YC_he8-z9He-1" vertex="1">
          <mxGeometry x="40" y="200" width="200" height="20" as="geometry" />
        </mxCell>
        <mxCell id="hU9d7umu_OKLn0DHEoQt-0" style="edgeStyle=orthogonalEdgeStyle;rounded=0;orthogonalLoop=1;jettySize=auto;html=1;exitX=0;exitY=0.5;exitDx=0;exitDy=0;entryX=1;entryY=0.5;entryDx=0;entryDy=0;fillColor=#f5f5f5;strokeColor=#666666;strokeWidth=2;" parent="VQfbc9Jr-YC_he8-z9He-1" source="VQfbc9Jr-YC_he8-z9He-16" target="SPLsom2ApgbeP6_uoEC7-0" edge="1">
          <mxGeometry relative="1" as="geometry" />
        </mxCell>
        <mxCell id="VQfbc9Jr-YC_he8-z9He-16" value="7" style="text;html=1;align=center;verticalAlign=middle;whiteSpace=wrap;rounded=0;fillColor=#f5f5f5;strokeColor=#666666;fontSize=14;fontColor=#333333;" parent="VQfbc9Jr-YC_he8-z9He-1" vertex="1">
          <mxGeometry x="200" y="260" width="40" height="40" as="geometry" />
        </mxCell>
        <mxCell id="VQfbc9Jr-YC_he8-z9He-17" value="result" style="text;html=1;align=center;verticalAlign=middle;whiteSpace=wrap;rounded=0;fontSize=10;" parent="VQfbc9Jr-YC_he8-z9He-1" vertex="1">
          <mxGeometry x="120" y="300" width="120" height="20" as="geometry" />
        </mxCell>
        <mxCell id="VQfbc9Jr-YC_he8-z9He-18" value="1" style="text;html=1;align=center;verticalAlign=middle;whiteSpace=wrap;rounded=0;fillColor=#d5e8d4;strokeColor=#82b366;fontSize=14;" parent="VQfbc9Jr-YC_he8-z9He-1" vertex="1">
          <mxGeometry x="300" y="60" width="40" height="40" as="geometry" />
        </mxCell>
        <mxCell id="VQfbc9Jr-YC_he8-z9He-19" value="carry" style="text;html=1;align=center;verticalAlign=middle;whiteSpace=wrap;rounded=0;fontSize=10;" parent="VQfbc9Jr-YC_he8-z9He-1" vertex="1">
          <mxGeometry x="300" y="100" width="40" height="20" as="geometry" />
        </mxCell>
        <mxCell id="UETWy1TT2qabcaCUY5uz-0" style="edgeStyle=orthogonalEdgeStyle;rounded=0;orthogonalLoop=1;jettySize=auto;html=1;fillColor=#f5f5f5;strokeColor=#666666;exitX=0.5;exitY=1;exitDx=0;exitDy=0;" parent="VQfbc9Jr-YC_he8-z9He-1" target="VQfbc9Jr-YC_he8-z9He-19" edge="1" source="SPLsom2ApgbeP6_uoEC7-0">
          <mxGeometry relative="1" as="geometry">
            <mxPoint x="140" y="320" as="sourcePoint" />
            <Array as="points">
              <mxPoint x="140" y="340" />
              <mxPoint x="320" y="340" />
            </Array>
          </mxGeometry>
        </mxCell>
        <mxCell id="SPLsom2ApgbeP6_uoEC7-0" value="0" style="text;html=1;align=center;verticalAlign=middle;whiteSpace=wrap;rounded=0;fillColor=#dae8fc;strokeColor=#6c8ebf;fontSize=14;" parent="VQfbc9Jr-YC_he8-z9He-1" vertex="1">
          <mxGeometry x="120" y="260" width="40" height="40" as="geometry" />
        </mxCell>
      </root>
    </mxGraphModel>
  </diagram>
  <diagram name="3" id="bpC5qCRxDvII2PPvkH59">
    <mxGraphModel dx="794" dy="1142" grid="1" gridSize="10" guides="1" tooltips="1" connect="1" arrows="1" fold="1" page="1" pageScale="1" pageWidth="380" pageHeight="380" math="0" shadow="0">
      <root>
        <mxCell id="sIPdUXVr7TP2xqPughqO-0" />
        <mxCell id="sIPdUXVr7TP2xqPughqO-1" parent="sIPdUXVr7TP2xqPughqO-0" />
        <mxCell id="sIPdUXVr7TP2xqPughqO-2" style="edgeStyle=orthogonalEdgeStyle;rounded=0;orthogonalLoop=1;jettySize=auto;html=1;exitX=1;exitY=0.5;exitDx=0;exitDy=0;entryX=0;entryY=0.5;entryDx=0;entryDy=0;strokeWidth=2;fillColor=#f5f5f5;strokeColor=#666666;" parent="sIPdUXVr7TP2xqPughqO-1" source="sIPdUXVr7TP2xqPughqO-3" target="sIPdUXVr7TP2xqPughqO-5" edge="1">
          <mxGeometry relative="1" as="geometry" />
        </mxCell>
        <mxCell id="sIPdUXVr7TP2xqPughqO-3" value="2" style="text;html=1;align=center;verticalAlign=middle;whiteSpace=wrap;rounded=0;fillColor=#f5f5f5;strokeColor=#666666;fontSize=14;fontColor=#333333;" parent="sIPdUXVr7TP2xqPughqO-1" vertex="1">
          <mxGeometry x="40" y="60" width="40" height="40" as="geometry" />
        </mxCell>
        <mxCell id="sIPdUXVr7TP2xqPughqO-4" style="edgeStyle=orthogonalEdgeStyle;rounded=0;orthogonalLoop=1;jettySize=auto;html=1;exitX=1;exitY=0.5;exitDx=0;exitDy=0;entryX=0;entryY=0.5;entryDx=0;entryDy=0;fillColor=#f5f5f5;strokeColor=#666666;strokeWidth=2;" parent="sIPdUXVr7TP2xqPughqO-1" source="sIPdUXVr7TP2xqPughqO-5" target="sIPdUXVr7TP2xqPughqO-7" edge="1">
          <mxGeometry relative="1" as="geometry">
            <mxPoint x="180" y="80" as="sourcePoint" />
          </mxGeometry>
        </mxCell>
        <mxCell id="sIPdUXVr7TP2xqPughqO-5" value="4" style="text;html=1;align=center;verticalAlign=middle;whiteSpace=wrap;rounded=0;fillColor=#f5f5f5;strokeColor=#666666;fontSize=14;fontColor=#333333;" parent="sIPdUXVr7TP2xqPughqO-1" vertex="1">
          <mxGeometry x="120" y="60" width="40" height="40" as="geometry" />
        </mxCell>
        <mxCell id="sIPdUXVr7TP2xqPughqO-6" style="edgeStyle=orthogonalEdgeStyle;rounded=0;orthogonalLoop=1;jettySize=auto;html=1;exitX=0.5;exitY=0;exitDx=0;exitDy=0;entryX=0.5;entryY=0;entryDx=0;entryDy=0;fillColor=#dae8fc;strokeColor=#6c8ebf;" parent="sIPdUXVr7TP2xqPughqO-1" source="sIPdUXVr7TP2xqPughqO-7" target="FlXmGSzsxHPP0qsJPaAO-0" edge="1">
          <mxGeometry relative="1" as="geometry">
            <Array as="points">
              <mxPoint x="220" y="40" />
              <mxPoint x="260" y="40" />
              <mxPoint x="260" y="240" />
              <mxPoint x="60" y="240" />
            </Array>
          </mxGeometry>
        </mxCell>
        <mxCell id="sIPdUXVr7TP2xqPughqO-7" value="3" style="text;html=1;align=center;verticalAlign=middle;whiteSpace=wrap;rounded=0;fillColor=#f5f5f5;strokeColor=#666666;fontSize=14;fontColor=#333333;" parent="sIPdUXVr7TP2xqPughqO-1" vertex="1">
          <mxGeometry x="200" y="60" width="40" height="40" as="geometry" />
        </mxCell>
        <mxCell id="sIPdUXVr7TP2xqPughqO-8" value="l1" style="text;html=1;align=center;verticalAlign=middle;whiteSpace=wrap;rounded=0;fontSize=10;" parent="sIPdUXVr7TP2xqPughqO-1" vertex="1">
          <mxGeometry x="40" y="100" width="160" height="20" as="geometry" />
        </mxCell>
        <mxCell id="sIPdUXVr7TP2xqPughqO-9" style="edgeStyle=orthogonalEdgeStyle;rounded=0;orthogonalLoop=1;jettySize=auto;html=1;exitX=1;exitY=0.5;exitDx=0;exitDy=0;entryX=0;entryY=0.5;entryDx=0;entryDy=0;strokeWidth=2;fillColor=#f5f5f5;strokeColor=#666666;" parent="sIPdUXVr7TP2xqPughqO-1" source="sIPdUXVr7TP2xqPughqO-10" target="sIPdUXVr7TP2xqPughqO-12" edge="1">
          <mxGeometry relative="1" as="geometry" />
        </mxCell>
        <mxCell id="sIPdUXVr7TP2xqPughqO-10" value="5" style="text;html=1;align=center;verticalAlign=middle;whiteSpace=wrap;rounded=0;fillColor=#f5f5f5;strokeColor=#666666;fontSize=14;fontColor=#333333;" parent="sIPdUXVr7TP2xqPughqO-1" vertex="1">
          <mxGeometry x="40" y="160" width="40" height="40" as="geometry" />
        </mxCell>
        <mxCell id="sIPdUXVr7TP2xqPughqO-11" style="edgeStyle=orthogonalEdgeStyle;rounded=0;orthogonalLoop=1;jettySize=auto;html=1;exitX=1;exitY=0.5;exitDx=0;exitDy=0;entryX=0;entryY=0.5;entryDx=0;entryDy=0;strokeWidth=2;fillColor=#f5f5f5;strokeColor=#666666;" parent="sIPdUXVr7TP2xqPughqO-1" source="sIPdUXVr7TP2xqPughqO-12" target="sIPdUXVr7TP2xqPughqO-14" edge="1">
          <mxGeometry relative="1" as="geometry">
            <mxPoint x="180" y="180" as="sourcePoint" />
          </mxGeometry>
        </mxCell>
        <mxCell id="sIPdUXVr7TP2xqPughqO-12" value="6" style="text;html=1;align=center;verticalAlign=middle;whiteSpace=wrap;rounded=0;fillColor=#f5f5f5;strokeColor=#666666;fontSize=14;fontColor=#333333;" parent="sIPdUXVr7TP2xqPughqO-1" vertex="1">
          <mxGeometry x="120" y="160" width="40" height="40" as="geometry" />
        </mxCell>
        <mxCell id="sIPdUXVr7TP2xqPughqO-13" style="edgeStyle=orthogonalEdgeStyle;rounded=0;orthogonalLoop=1;jettySize=auto;html=1;exitX=0.5;exitY=0;exitDx=0;exitDy=0;entryX=0.5;entryY=0;entryDx=0;entryDy=0;fillColor=#dae8fc;strokeColor=#6c8ebf;" parent="sIPdUXVr7TP2xqPughqO-1" source="sIPdUXVr7TP2xqPughqO-14" target="FlXmGSzsxHPP0qsJPaAO-0" edge="1">
          <mxGeometry relative="1" as="geometry">
            <Array as="points">
              <mxPoint x="220" y="140" />
              <mxPoint x="260" y="140" />
              <mxPoint x="260" y="240" />
              <mxPoint x="60" y="240" />
            </Array>
          </mxGeometry>
        </mxCell>
        <mxCell id="sIPdUXVr7TP2xqPughqO-14" value="4" style="text;html=1;align=center;verticalAlign=middle;whiteSpace=wrap;rounded=0;fillColor=#f5f5f5;strokeColor=#666666;fontSize=14;fontColor=#333333;" parent="sIPdUXVr7TP2xqPughqO-1" vertex="1">
          <mxGeometry x="200" y="160" width="40" height="40" as="geometry" />
        </mxCell>
        <mxCell id="sIPdUXVr7TP2xqPughqO-15" value="l2" style="text;html=1;align=center;verticalAlign=middle;whiteSpace=wrap;rounded=0;fontSize=10;" parent="sIPdUXVr7TP2xqPughqO-1" vertex="1">
          <mxGeometry x="40" y="200" width="160" height="20" as="geometry" />
        </mxCell>
        <mxCell id="sIPdUXVr7TP2xqPughqO-16" style="edgeStyle=orthogonalEdgeStyle;rounded=0;orthogonalLoop=1;jettySize=auto;html=1;exitX=0;exitY=0.5;exitDx=0;exitDy=0;entryX=1;entryY=0.5;entryDx=0;entryDy=0;fillColor=#f5f5f5;strokeColor=#666666;strokeWidth=2;" parent="sIPdUXVr7TP2xqPughqO-1" source="sIPdUXVr7TP2xqPughqO-17" target="sIPdUXVr7TP2xqPughqO-21" edge="1">
          <mxGeometry relative="1" as="geometry">
            <mxPoint x="180" y="280" as="targetPoint" />
          </mxGeometry>
        </mxCell>
        <mxCell id="sIPdUXVr7TP2xqPughqO-17" value="7" style="text;html=1;align=center;verticalAlign=middle;whiteSpace=wrap;rounded=0;fillColor=#f5f5f5;strokeColor=#666666;fontSize=14;fontColor=#333333;" parent="sIPdUXVr7TP2xqPughqO-1" vertex="1">
          <mxGeometry x="200" y="260" width="40" height="40" as="geometry" />
        </mxCell>
        <mxCell id="sIPdUXVr7TP2xqPughqO-18" value="result" style="text;html=1;align=center;verticalAlign=middle;whiteSpace=wrap;rounded=0;fontSize=10;" parent="sIPdUXVr7TP2xqPughqO-1" vertex="1">
          <mxGeometry x="40" y="300" width="200" height="20" as="geometry" />
        </mxCell>
        <mxCell id="sIPdUXVr7TP2xqPughqO-19" value="0" style="text;html=1;align=center;verticalAlign=middle;whiteSpace=wrap;rounded=0;fillColor=#d5e8d4;strokeColor=#82b366;fontSize=14;" parent="sIPdUXVr7TP2xqPughqO-1" vertex="1">
          <mxGeometry x="300" y="60" width="40" height="40" as="geometry" />
        </mxCell>
        <mxCell id="uBXoZthBy9y_xXjyOrbH-0" style="edgeStyle=orthogonalEdgeStyle;rounded=0;orthogonalLoop=1;jettySize=auto;html=1;exitX=0.5;exitY=1;exitDx=0;exitDy=0;entryX=0.5;entryY=1;entryDx=0;entryDy=0;fillColor=#d5e8d4;strokeColor=#82b366;" parent="sIPdUXVr7TP2xqPughqO-1" source="sIPdUXVr7TP2xqPughqO-20" target="FlXmGSzsxHPP0qsJPaAO-0" edge="1">
          <mxGeometry relative="1" as="geometry">
            <Array as="points">
              <mxPoint x="320" y="340" />
              <mxPoint x="60" y="340" />
            </Array>
          </mxGeometry>
        </mxCell>
        <mxCell id="sIPdUXVr7TP2xqPughqO-20" value="carry" style="text;html=1;align=center;verticalAlign=middle;whiteSpace=wrap;rounded=0;fontSize=10;" parent="sIPdUXVr7TP2xqPughqO-1" vertex="1">
          <mxGeometry x="300" y="100" width="40" height="20" as="geometry" />
        </mxCell>
        <mxCell id="FlXmGSzsxHPP0qsJPaAO-1" style="edgeStyle=orthogonalEdgeStyle;rounded=0;orthogonalLoop=1;jettySize=auto;html=1;exitX=0;exitY=0.5;exitDx=0;exitDy=0;entryX=1;entryY=0.5;entryDx=0;entryDy=0;strokeWidth=2;fillColor=#f5f5f5;strokeColor=#666666;" parent="sIPdUXVr7TP2xqPughqO-1" source="sIPdUXVr7TP2xqPughqO-21" target="FlXmGSzsxHPP0qsJPaAO-0" edge="1">
          <mxGeometry relative="1" as="geometry" />
        </mxCell>
        <mxCell id="sIPdUXVr7TP2xqPughqO-21" value="0" style="text;html=1;align=center;verticalAlign=middle;whiteSpace=wrap;rounded=0;fillColor=#f5f5f5;strokeColor=#666666;fontSize=14;fontColor=#333333;" parent="sIPdUXVr7TP2xqPughqO-1" vertex="1">
          <mxGeometry x="120" y="260" width="40" height="40" as="geometry" />
        </mxCell>
        <mxCell id="FlXmGSzsxHPP0qsJPaAO-0" value="8" style="text;html=1;align=center;verticalAlign=middle;whiteSpace=wrap;rounded=0;fillColor=#ffe6cc;strokeColor=#d79b00;fontSize=14;" parent="sIPdUXVr7TP2xqPughqO-1" vertex="1">
          <mxGeometry x="40" y="260" width="40" height="40" as="geometry" />
        </mxCell>
      </root>
    </mxGraphModel>
  </diagram>
</mxfile>
